<?xml version="1.0" encoding="UTF-8"?><svg id="uuid-0cfd970b-6953-46a7-81f5-1549c5735faa" xmlns="http://www.w3.org/2000/svg" viewBox="0 0 239.01 450.39"><defs><style>.uuid-64f59cd2-5d3d-49d8-bfaa-d89bd117a589{fill:#565b4a;}</style></defs><g id="uuid-49e9aaef-6bc5-4fb0-b954-14921705d613"><path class="uuid-64f59cd2-5d3d-49d8-bfaa-d89bd117a589" d="M122.39,373c-28,0-50.78-22.78-50.78-50.78V118.93c0-26.72,21.74-48.47,48.47-48.47s48.47,21.74,48.47,48.47v36.09h-27.63v-36.09c0-11.49-9.35-20.84-20.84-20.84s-20.84,9.35-20.84,20.84v203.3c0,12.76,10.38,23.15,23.15,23.15s23.15-10.38,23.15-23.15v-98.18h27.63v98.18c0,28-22.78,50.78-50.78,50.78Z"/><path class="uuid-64f59cd2-5d3d-49d8-bfaa-d89bd117a589" d="M85.43,235.55H0v-116.04C0,53.61,53.61,0,119.51,0s119.5,53.61,119.5,119.51v35.51h-27.63v-35.51c0-50.66-41.21-91.88-91.87-91.88S27.63,68.85,27.63,119.51v88.41h57.8v27.63Z"/><path class="uuid-64f59cd2-5d3d-49d8-bfaa-d89bd117a589" d="M119.51,450.39C53.61,450.39,0,396.79,0,330.89v-54.87h27.63v54.87c0,50.66,41.22,91.88,91.88,91.88s91.87-41.22,91.87-91.88v-95.34h-88.99v-27.63h116.62v122.97c0,65.9-53.61,119.51-119.5,119.51Z"/></g></svg>